<?xml version="1.0" encoding="UTF-8"?>
<svg id="Layer_1" data-name="Layer 1" xmlns="http://www.w3.org/2000/svg" viewBox="0 0 2000 2000">
  <defs>
    <style>
      .cls-1 {
        stroke: #996427;
        stroke-miterlimit: 10;
        stroke-width: 2.72px;
      }

      .cls-1, .cls-2 {
        fill: #996427;
      }
    </style>
  </defs>
  <g>
    <path class="cls-2" d="M449.58,1132.79l54.15,13.15c5.18,1.26,9.19,1.93,12.04,2.02,3.85.13,7.18-.66,10-2.38,1.49-.91,2.74-1.91,3.74-3,1-1.09,2.04-2.61,3.11-4.56l2.94,1.92-3.4,14.01c-1.23,5.05-2.68,9.02-4.35,11.93-1.67,2.9-3.65,5.04-5.92,6.43-3.06,1.86-7.2,2.39-12.42,1.6-2.13-.32-5.09-.94-8.87-1.86l-47.83-11.52c-11.41-2.84-22.69-2.91-33.84-.2-8.16,1.96-16.56,5.57-25.19,10.82l-10.83,6.59c.53-1.61,1.16-6.41,1.89-14.38.6-6.61,2.22-12.16,4.85-16.67,3.81-6.63,10.27-12.71,19.37-18.25l32.71-19.93c8.08-4.92,13.3-9.34,15.65-13.24,2.35-3.91,2.02-8.33-.99-13.27-4.92-8.08-19.37-15.52-43.36-22.31-23.98-6.79-51.4-11.07-82.26-12.81l-4.01-6.59,27.38-.87c28.67-.79,55.93,1.99,81.79,8.34,25.86,6.35,41.64,14.19,47.32,23.53,5.02,8.24,5.82,17.32,2.4,27.25-3.59,10.36-10.83,18.86-21.73,25.5l-14.36,8.74Z"/>
    <path class="cls-2" d="M291.03,1141.82l15.69,53.48c1.5,5.11,2.92,8.92,4.27,11.44,1.81,3.4,4.16,5.89,7.06,7.47,1.53.84,3.02,1.42,4.47,1.74,1.45.32,3.28.46,5.5.42l-.19,3.51-13.84,4.06c-4.98,1.46-9.15,2.19-12.5,2.2-3.35,0-6.19-.64-8.53-1.92-3.14-1.72-5.67-5.04-7.59-9.96-.79-2-1.73-4.87-2.83-8.61l-13.94-47.18c-3.25-11.3-8.83-21.1-16.75-29.41-5.78-6.09-13.1-11.56-21.97-16.4l-11.12-6.08c1.66-.35,6.13-2.2,13.4-5.55,6.02-2.78,11.64-4.16,16.86-4.13,7.65-.01,16.15,2.54,25.5,7.65l33.61,18.37c8.3,4.54,14.73,6.85,19.29,6.93,4.56.09,8.23-2.41,11-7.49,4.54-8.3,3.75-24.54-2.35-48.7-6.11-24.17-16.12-50.05-30.03-77.64l3.7-6.77,14.44,23.28c15.02,24.43,26.24,49.43,33.67,75,7.43,25.57,8.53,43.15,3.29,52.75-4.63,8.46-12.09,13.7-22.4,15.71-10.76,2.07-21.75.05-32.95-6.07l-14.75-8.06Z"/>
    <path class="cls-2" d="M203.93,1009.03l-38.47,40.32c-3.68,3.85-6.27,6.99-7.77,9.42-2.04,3.27-3.02,6.55-2.94,9.85.04,1.75.28,3.33.73,4.74.45,1.41,1.24,3.07,2.39,4.97l-3.13,1.59-10.43-9.95c-3.76-3.59-6.48-6.83-8.15-9.73-1.67-2.9-2.54-5.68-2.61-8.35-.08-3.58,1.53-7.43,4.83-11.55,1.34-1.69,3.35-3.94,6.04-6.76l33.89-35.66c8.16-8.46,13.86-18.2,17.09-29.21,2.39-8.05,3.46-17.12,3.22-27.23l-.3-12.67c1.13,1.26,4.97,4.2,11.51,8.83,5.42,3.82,9.42,8,12.01,12.53,3.83,6.62,5.87,15.25,6.12,25.9l.9,38.29c.22,9.46,1.44,16.18,3.64,20.17,2.21,3.99,6.2,5.92,11.99,5.78,9.46-.22,23.13-9.02,41-26.39,17.87-17.37,35.28-38.98,52.23-64.83l7.71-.18-12.94,24.15c-13.65,25.22-29.69,47.44-48.12,66.66-18.43,19.22-33.11,28.96-44.04,29.22-9.64.23-17.91-3.62-24.8-11.55-7.18-8.28-10.92-18.81-11.22-31.57l-.39-16.81Z"/>
    <path class="cls-2" d="M275.39,867.21l-54.15-13.15c-5.18-1.26-9.19-1.93-12.04-2.02-3.85-.13-7.18.66-10,2.38-1.49.91-2.74,1.91-3.74,3-1,1.09-2.04,2.61-3.11,4.56l-2.94-1.92,3.4-14.01c1.23-5.05,2.68-9.02,4.35-11.93,1.67-2.9,3.65-5.04,5.92-6.43,3.06-1.86,7.2-2.39,12.42-1.6,2.13.32,5.09.94,8.87,1.86l47.83,11.52c11.41,2.84,22.69,2.91,33.84.2,8.16-1.96,16.56-5.57,25.19-10.82l10.83-6.59c-.53,1.61-1.16,6.41-1.89,14.38-.6,6.61-2.22,12.16-4.85,16.67-3.81,6.63-10.27,12.71-19.37,18.25l-32.71,19.93c-8.08,4.92-13.3,9.34-15.65,13.24-2.35,3.91-2.02,8.33.99,13.27,4.92,8.08,19.37,15.52,43.36,22.31,23.98,6.79,51.4,11.07,82.26,12.81l4.01,6.59-27.38.87c-28.67.79-55.93-1.99-81.79-8.34-25.86-6.35-41.64-14.19-47.32-23.53-5.02-8.24-5.82-17.32-2.4-27.25,3.59-10.36,10.83-18.86,21.73-25.5l14.36-8.74Z"/>
    <path class="cls-2" d="M433.94,858.18l-15.69-53.48c-1.5-5.11-2.92-8.92-4.27-11.44-1.81-3.4-4.16-5.89-7.06-7.47-1.53-.84-3.02-1.42-4.47-1.74-1.45-.32-3.28-.46-5.5-.42l.19-3.51,13.84-4.06c4.98-1.46,9.15-2.19,12.5-2.2,3.35,0,6.19.64,8.53,1.92,3.14,1.72,5.67,5.04,7.59,9.96.79,2,1.73,4.87,2.83,8.61l13.94,47.18c3.25,11.3,8.83,21.1,16.75,29.41,5.78,6.09,13.1,11.56,21.97,16.4l11.12,6.08c-1.66.35-6.13,2.2-13.4,5.55-6.02,2.78-11.64,4.16-16.86,4.13-7.65.01-16.15-2.54-25.5-7.65l-33.61-18.37c-8.3-4.54-14.73-6.85-19.29-6.93-4.56-.09-8.23,2.41-11,7.49-4.54,8.3-3.75,24.54,2.35,48.7,6.11,24.17,16.12,50.05,30.03,77.64l-3.7,6.77-14.44-23.28c-15.02-24.43-26.24-49.43-33.67-75-7.43-25.57-8.53-43.15-3.29-52.75,4.63-8.46,12.09-13.7,22.4-15.71,10.76-2.07,21.75-.05,32.95,6.07l14.75,8.06Z"/>
    <path class="cls-2" d="M521.03,990.97l38.47-40.32c3.68-3.85,6.27-6.99,7.77-9.42,2.04-3.27,3.02-6.55,2.94-9.85-.04-1.75-.28-3.33-.73-4.74-.45-1.41-1.24-3.07-2.39-4.97l3.13-1.59,10.43,9.95c3.76,3.59,6.48,6.83,8.15,9.73,1.67,2.9,2.54,5.68,2.61,8.35.08,3.58-1.53,7.43-4.83,11.55-1.34,1.69-3.35,3.94-6.04,6.76l-33.89,35.66c-8.16,8.46-13.86,18.2-17.09,29.21-2.39,8.05-3.46,17.12-3.22,27.23l.3,12.67c-1.13-1.26-4.97-4.2-11.51-8.83-5.42-3.82-9.42-8-12.01-12.53-3.83-6.62-5.87-15.25-6.12-25.9l-.9-38.29c-.22-9.46-1.44-16.18-3.64-20.17-2.21-3.99-6.2-5.92-11.99-5.78-9.46.22-23.13,9.02-41,26.39-17.87,17.37-35.28,38.98-52.23,64.83l-7.71.18,12.94-24.15c13.65-25.22,29.69-47.44,48.12-66.66,18.43-19.22,33.11-28.96,44.04-29.22,9.64-.23,17.91,3.62,24.8,11.55,7.18,8.28,10.92,18.81,11.22,31.57l.39,16.81Z"/>
  </g>
  <g>
    <path class="cls-1" d="M651.21,866.26h32.48v1.41l-6.21.85c-2.26.28-3.67,2.12-3.67,4.38v40.1h48.01v-40.1c0-2.26-1.41-4.09-3.67-4.38l-6.21-.85v-1.41h32.48v1.41l-6.21.85c-2.26.28-3.67,2.12-3.67,4.38v85.58c0,2.26,1.41,4.09,3.67,4.38l6.21.85v1.41h-32.48v-1.41l6.21-.85c2.26-.28,3.67-2.12,3.67-4.38v-43.64h-48.01v43.64c0,2.26,1.41,4.09,3.67,4.38l6.21.85v1.41h-32.48v-1.41l6.21-.85c2.26-.28,3.67-2.12,3.67-4.38v-85.58c0-2.26-1.41-4.09-3.67-4.38l-6.21-.85v-1.41Z"/>
    <path class="cls-1" d="M756.01,962.85c2.26-.28,3.11-2.12,4.24-5.93,6.07-20.48,18.36-33.61,33.47-33.61,5.37,0,10.45,1.69,15.11,4.66l-18.5-44.91-10.73,26.55h-1.84l17.51-43.35h1.84l37.99,92.21c.99,2.26,1.41,4.09,3.67,4.38l6.21.85v1.41h-33.47v-1.41l6.21-.85c2.26-.28,4.66-2.12,3.67-4.38l-10.73-26.12c-5.23-5.08-10.17-7.63-16.38-7.63-13.84,0-24.29,11.86-29.23,26.26-3.39,9.75-1.13,11.58,1.13,11.86l6.21.85v1.41h-22.59v-1.41l6.21-.85Z"/>
    <path class="cls-1" d="M850.37,866.26h32.48v1.41l-6.21.85c-2.26.28-3.67,2.12-3.67,4.38v85.58c0,2.26,1.41,4.94,3.67,4.94h10.03c18.64,0,33.61-20.48,33.61-47.73,0-25.84-13.13-46.74-29.23-48.16v-1.27c23.44,1.84,42.22,22.03,42.22,49.43s-20.34,49.43-46.6,49.43h-36.29v-1.41l6.21-.85c2.26-.28,3.67-2.12,3.67-4.38v-85.58c0-2.26-1.41-4.09-3.67-4.38l-6.21-.85v-1.41Z"/>
    <path class="cls-1" d="M941.19,963.7l6.21-.85c2.26-.28,3.67-2.12,3.67-4.38v-85.58c0-2.26-1.41-4.09-3.67-4.38l-6.21-.85v-1.41h32.48v1.41l-6.21.85c-2.26.28-3.67,2.12-3.67,4.38v85.58c0,2.26,1.41,4.09,3.67,4.38l6.21.85v1.41h-32.48v-1.41Z"/>
    <path class="cls-1" d="M1016.89,866.26h21.75l31.77,63.83,33.47-63.83h21.89v1.41l-6.21.85c-2.26.28-3.67,2.12-3.67,4.38v85.58c0,2.26,1.41,4.09,3.67,4.38l6.21.85v1.41h-32.48v-1.41l6.21-.85c2.26-.28,3.67-2.12,3.67-4.38v-84.87l-36.43,70.32h-3.53l-35.02-70.04v84.59c0,2.26,1.41,4.09,3.67,4.38l6.21.85v1.41h-21.18v-1.41l6.21-.85c2.26-.28,3.67-2.12,3.67-4.38v-85.58c0-2.26-1.41-4.09-3.67-4.38l-6.21-.85v-1.41Z"/>
    <path class="cls-1" d="M1132.71,867.67v-1.41h32.48v1.41l-6.21.85c-2.26.28-3.67,2.12-3.67,4.38v60.16c0,20.9,8.9,32.76,24.43,32.76,13.84,0,23.58-9.75,23.58-28.1v-64.82c0-2.26-1.41-4.09-3.67-4.38l-6.21-.85v-1.41h21.18v1.41l-6.21.85c-2.26.28-3.67,2.12-3.67,4.38v63.83c0,21.89-10.73,31.49-28.38,31.49-21.18,0-33.75-13.14-33.75-35.17v-60.16c0-2.26-1.41-4.09-3.67-4.38l-6.21-.85Z"/>
    <path class="cls-1" d="M1220.99,866.26h32.48v1.41l-6.21.85c-2.26.28-3.67,2.12-3.67,4.38v40.1h48.01v-40.1c0-2.26-1.41-4.09-3.67-4.38l-6.21-.85v-1.41h32.48v1.41l-6.21.85c-2.26.28-3.67,2.12-3.67,4.38v85.58c0,2.26,1.41,4.09,3.67,4.38l6.21.85v1.41h-32.48v-1.41l6.21-.85c2.26-.28,3.67-2.12,3.67-4.38v-43.64h-48.01v43.64c0,2.26,1.41,4.09,3.67,4.38l6.21.85v1.41h-32.48v-1.41l6.21-.85c2.26-.28,3.67-2.12,3.67-4.38v-85.58c0-2.26-1.41-4.09-3.67-4.38l-6.21-.85v-1.41Z"/>
    <path class="cls-1" d="M1325.79,962.85c2.26-.28,3.11-2.12,4.24-5.93,6.07-20.48,18.36-33.61,33.47-33.61,5.37,0,10.45,1.69,15.11,4.66l-18.5-44.91-10.73,26.55h-1.84l17.51-43.35h1.84l37.99,92.21c.99,2.26,1.41,4.09,3.67,4.38l6.21.85v1.41h-33.47v-1.41l6.21-.85c2.26-.28,4.66-2.12,3.67-4.38l-10.73-26.12c-5.23-5.08-10.17-7.63-16.38-7.63-13.84,0-24.29,11.86-29.23,26.26-3.39,9.75-1.13,11.58,1.13,11.86l6.21.85v1.41h-22.59v-1.41l6.21-.85Z"/>
    <path class="cls-1" d="M1420.14,866.26h21.75l31.77,63.83,33.47-63.83h21.89v1.41l-6.21.85c-2.26.28-3.67,2.12-3.67,4.38v85.58c0,2.26,1.41,4.09,3.67,4.38l6.21.85v1.41h-32.48v-1.41l6.21-.85c2.26-.28,3.67-2.12,3.67-4.38v-84.87l-36.43,70.32h-3.53l-35.02-70.04v84.59c0,2.26,1.41,4.09,3.67,4.38l6.21.85v1.41h-21.18v-1.41l6.21-.85c2.26-.28,3.67-2.12,3.67-4.38v-85.58c0-2.26-1.41-4.09-3.67-4.38l-6.21-.85v-1.41Z"/>
    <path class="cls-1" d="M1536.95,866.26h21.75l31.77,63.83,33.47-63.83h21.89v1.41l-6.21.85c-2.26.28-3.67,2.12-3.67,4.38v85.58c0,2.26,1.41,4.09,3.67,4.38l6.21.85v1.41h-32.48v-1.41l6.21-.85c2.26-.28,3.67-2.12,3.67-4.38v-84.87l-36.43,70.32h-3.53l-35.02-70.04v84.59c0,2.26,1.41,4.09,3.67,4.38l6.21.85v1.41h-21.18v-1.41l6.21-.85c2.26-.28,3.67-2.12,3.67-4.38v-85.58c0-2.26-1.41-4.09-3.67-4.38l-6.21-.85v-1.41Z"/>
    <path class="cls-1" d="M1653.76,866.26h61.01c1.13,0,1.84.7,1.84,1.55l-.42,18.78h-1.41l-.71-6.08c-.99-8.19-7.34-12.85-15.11-12.85h-16.1c-3.96,0-6.5,2.12-6.5,5.23v37.56h27.11v1.41h-27.11v46.6c0,3.11,2.54,5.23,6.5,5.23h17.51c7.77,0,14.12-4.66,15.11-12.85l.71-6.07h1.41l.42,18.78c0,.84-.71,1.55-1.84,1.55h-62.42v-1.41l6.21-.85c2.26-.28,3.67-2.12,3.67-4.38v-85.58c0-2.26-1.41-4.09-3.67-4.38l-6.21-.85v-1.41Z"/>
    <path class="cls-1" d="M1724.52,866.26h32.48v1.41l-6.21.85c-2.26.28-3.67,2.12-3.67,4.38v85.58c0,2.26,1.41,4.94,3.67,4.94h10.03c18.64,0,33.61-20.48,33.61-47.73,0-25.84-13.13-46.74-29.23-48.16v-1.27c23.44,1.84,42.22,22.03,42.22,49.43s-20.34,49.43-46.6,49.43h-36.29v-1.41l6.21-.85c2.26-.28,3.67-2.12,3.67-4.38v-85.58c0-2.26-1.41-4.09-3.67-4.38l-6.21-.85v-1.41Z"/>
    <path class="cls-1" d="M651.21,1035.75h32.48v1.41l-6.21.85c-2.26.28-3.67,2.12-3.67,4.38v40.1h48.01v-40.1c0-2.26-1.41-4.09-3.67-4.38l-6.21-.85v-1.41h32.48v1.41l-6.21.85c-2.26.28-3.67,2.12-3.67,4.38v85.58c0,2.26,1.41,4.09,3.67,4.38l6.21.85v1.41h-32.48v-1.41l6.21-.85c2.26-.28,3.67-2.12,3.67-4.38v-43.64h-48.01v43.64c0,2.26,1.41,4.09,3.67,4.38l6.21.85v1.41h-32.48v-1.41l6.21-.85c2.26-.28,3.67-2.12,3.67-4.38v-85.58c0-2.26-1.41-4.09-3.67-4.38l-6.21-.85v-1.41Z"/>
    <path class="cls-1" d="M756.01,1132.34c2.26-.28,3.11-2.12,4.24-5.93,6.07-20.48,18.36-33.61,33.47-33.61,5.37,0,10.45,1.7,15.11,4.66l-18.5-44.91-10.73,26.55h-1.84l17.51-43.35h1.84l37.99,92.21c.99,2.26,1.41,4.09,3.67,4.38l6.21.85v1.41h-33.47v-1.41l6.21-.85c2.26-.28,4.66-2.12,3.67-4.38l-10.73-26.13c-5.23-5.08-10.17-7.62-16.38-7.62-13.84,0-24.29,11.86-29.23,26.26-3.39,9.75-1.13,11.58,1.13,11.86l6.21.85v1.41h-22.59v-1.41l6.21-.85Z"/>
    <path class="cls-1" d="M850.37,1035.75h21.75l31.77,63.83,33.47-63.83h21.89v1.41l-6.21.85c-2.26.28-3.67,2.12-3.67,4.38v85.58c0,2.26,1.41,4.09,3.67,4.38l6.21.85v1.41h-32.48v-1.41l6.21-.85c2.26-.28,3.67-2.12,3.67-4.38v-84.87l-36.43,70.33h-3.53l-35.02-70.04v84.59c0,2.26,1.41,4.09,3.67,4.38l6.21.85v1.41h-21.18v-1.41l6.21-.85c2.26-.28,3.67-2.12,3.67-4.38v-85.58c0-2.26-1.41-4.09-3.67-4.38l-6.21-.85v-1.41Z"/>
    <path class="cls-1" d="M970.85,1132.34c2.26-.28,3.11-2.12,4.24-5.93,6.07-20.48,18.36-33.61,33.47-33.61,5.37,0,10.45,1.7,15.11,4.66l-18.5-44.91-10.73,26.55h-1.84l17.51-43.35h1.84l37.99,92.21c.99,2.26,1.41,4.09,3.67,4.38l6.21.85v1.41h-33.47v-1.41l6.21-.85c2.26-.28,4.66-2.12,3.67-4.38l-10.73-26.13c-5.23-5.08-10.17-7.62-16.38-7.62-13.84,0-24.29,11.86-29.23,26.26-3.39,9.75-1.13,11.58,1.13,11.86l6.21.85v1.41h-22.59v-1.41l6.21-.85Z"/>
    <path class="cls-1" d="M1065.2,1035.75h32.48v1.41l-6.21.85c-2.26.28-3.67,2.12-3.67,4.38v85.58c0,2.26,1.41,4.94,3.67,4.94h10.03c18.64,0,33.61-20.48,33.61-47.73,0-25.84-13.13-46.74-29.23-48.16v-1.27c23.44,1.84,42.22,22.03,42.22,49.43s-20.34,49.43-46.6,49.43h-36.29v-1.41l6.21-.85c2.26-.28,3.67-2.12,3.67-4.38v-85.58c0-2.26-1.41-4.09-3.67-4.38l-6.21-.85v-1.41Z"/>
    <path class="cls-1" d="M1195,1132.34c2.26-.28,3.11-2.12,4.24-5.93,6.07-20.48,18.36-33.61,33.47-33.61,5.37,0,10.45,1.7,15.11,4.66l-18.5-44.91-10.73,26.55h-1.84l17.51-43.35h1.84l37.99,92.21c.99,2.26,1.41,4.09,3.67,4.38l6.21.85v1.41h-33.47v-1.41l6.21-.85c2.26-.28,4.66-2.12,3.67-4.38l-10.73-26.13c-5.22-5.08-10.17-7.62-16.38-7.62-13.84,0-24.29,11.86-29.23,26.26-3.39,9.75-1.13,11.58,1.13,11.86l6.21.85v1.41h-22.59v-1.41l6.21-.85Z"/>
    <path class="cls-1" d="M1295.56,1132.34c2.26-.28,3.67-2.12,3.67-4.38v-85.58c0-2.26-1.41-4.09-3.67-4.38l-6.21-.85v-1.41h32.48v1.41l-6.21.85c-2.26.28-3.67,2.12-3.67,4.38v85.58c0,3.11,2.54,5.23,6.5,5.23h17.51c7.77,0,14.12-6.08,15.11-14.26l.71-6.07h1.41l.42,20.19c0,.84-.71,1.55-1.84,1.55h-62.42v-1.41l6.21-.85Z"/>
    <path class="cls-1" d="M1398.67,1132.34c2.26-.28,3.11-2.12,4.24-5.93,6.07-20.48,18.36-33.61,33.47-33.61,5.37,0,10.45,1.7,15.11,4.66l-18.5-44.91-10.73,26.55h-1.84l17.51-43.35h1.84l37.99,92.21c.99,2.26,1.41,4.09,3.67,4.38l6.21.85v1.41h-33.47v-1.41l6.21-.85c2.26-.28,4.66-2.12,3.67-4.38l-10.73-26.13c-5.22-5.08-10.17-7.62-16.38-7.62-13.84,0-24.29,11.86-29.23,26.26-3.39,9.75-1.13,11.58,1.13,11.86l6.21.85v1.41h-22.59v-1.41l6.21-.85Z"/>
    <path class="cls-1" d="M1493.02,1035.75h32.48v1.41l-6.21.85c-2.26.28-3.67,2.12-3.67,4.38v85.58c0,2.26,1.41,4.94,3.67,4.94h10.03c18.64,0,33.61-20.48,33.61-47.73,0-25.84-13.13-46.74-29.23-48.16v-1.27c23.44,1.84,42.22,22.03,42.22,49.43s-20.34,49.43-46.6,49.43h-36.29v-1.41l6.21-.85c2.26-.28,3.67-2.12,3.67-4.38v-85.58c0-2.26-1.41-4.09-3.67-4.38l-6.21-.85v-1.41Z"/>
    <path class="cls-1" d="M1583.84,1035.75h32.48v1.41l-6.21.85c-2.26.28-3.67,2.12-3.67,4.38v40.1h48.01v-40.1c0-2.26-1.41-4.09-3.67-4.38l-6.21-.85v-1.41h32.48v1.41l-6.21.85c-2.26.28-3.67,2.12-3.67,4.38v85.58c0,2.26,1.41,4.09,3.67,4.38l6.21.85v1.41h-32.48v-1.41l6.21-.85c2.26-.28,3.67-2.12,3.67-4.38v-43.64h-48.01v43.64c0,2.26,1.41,4.09,3.67,4.38l6.21.85v1.41h-32.48v-1.41l6.21-.85c2.26-.28,3.67-2.12,3.67-4.38v-85.58c0-2.26-1.41-4.09-3.67-4.38l-6.21-.85v-1.41Z"/>
    <path class="cls-1" d="M1688.64,1132.34c2.26-.28,3.11-2.12,4.24-5.93,6.07-20.48,18.36-33.61,33.47-33.61,5.37,0,10.45,1.7,15.11,4.66l-18.5-44.91-10.73,26.55h-1.84l17.51-43.35h1.84l37.99,92.21c.99,2.26,1.41,4.09,3.67,4.38l6.21.85v1.41h-33.47v-1.41l6.21-.85c2.26-.28,4.66-2.12,3.67-4.38l-10.73-26.13c-5.22-5.08-10.17-7.62-16.38-7.62-13.84,0-24.29,11.86-29.23,26.26-3.39,9.75-1.13,11.58,1.13,11.86l6.21.85v1.41h-22.59v-1.41l6.21-.85Z"/>
    <path class="cls-1" d="M1782.99,1035.75h22.31l49.85,76.54v-69.9c0-2.26-1.41-4.09-3.67-4.38l-6.21-.85v-1.41h21.18v1.41l-6.21.85c-2.26.28-3.67,2.12-3.67,4.38v92.21h-2.26l-60.02-92.92v86.28c0,2.26,1.41,4.09,3.67,4.38l6.21.85v1.41h-21.18v-1.41l6.21-.85c2.26-.28,3.67-2.12,3.67-4.38v-85.58c0-2.26-1.41-4.09-3.67-4.38l-6.21-.85v-1.41Z"/>
  </g>
</svg>